<svg id="Bg_Main" xmlns="http://www.w3.org/2000/svg" xmlns:xlink="http://www.w3.org/1999/xlink" viewBox="0 0 1281.91 230.71"><defs><style>.cls-1{fill:#253335;}.cls-2{fill:#fff;}.cls-3{fill:url(#Summer);}.cls-11,.cls-13,.cls-4,.cls-5,.cls-6,.cls-7,.cls-8,.cls-9{fill:none;stroke-miterlimit:10;}.cls-11,.cls-4,.cls-5,.cls-6,.cls-7,.cls-8,.cls-9{stroke:#fff;}.cls-4{stroke-width:0.5px;}.cls-5{stroke-width:0.87px;}.cls-6{stroke-width:0.71px;}.cls-7{stroke-width:0.61px;}.cls-8{stroke-width:0.77px;}.cls-9{stroke-width:1.94px;}.cls-10{fill:url(#Summer-2);}.cls-11{stroke-width:2px;}.cls-12{fill:url(#Summer-3);}.cls-13{stroke:#f6921e;}</style><radialGradient id="Summer" cx="1132.5" cy="74.5" r="14.5" gradientUnits="userSpaceOnUse"><stop offset="0" stop-color="#fff"/><stop offset="0.09" stop-color="#ffecd8"/><stop offset="0.21" stop-color="#ffd5a7"/><stop offset="0.33" stop-color="#ffc07d"/><stop offset="0.46" stop-color="#ffaf5b"/><stop offset="0.59" stop-color="#ffa340"/><stop offset="0.72" stop-color="#ff992d"/><stop offset="0.86" stop-color="#ff9422"/><stop offset="1" stop-color="#ff921e"/></radialGradient><radialGradient id="Summer-2" cx="296.5" cy="102.5" r="12.5" xlink:href="#Summer"/><radialGradient id="Summer-3" cx="74.5" cy="122.5" xlink:href="#Summer"/></defs><title>Nav Bar Bg</title><path class="cls-1" d="M0,0V19A4.73,4.73,0,0,1,1,22c0,1.3,0,2.6-.06,3.89A4.67,4.67,0,0,1,2,29c0,5.87-.26,11.72-.6,17.58a4.87,4.87,0,0,1,2.41,4.26c3,2.1,2.65,7.57-1.07,8.87a5.43,5.43,0,0,1-.54,7.14,154.39,154.39,0,0,1-.38,39.48,4,4,0,0,1-1.82,3V163H1280V0Z"/><path class="cls-2" d="M1280,53A1331,1331,0,0,1,1117.6,94c-117.18,22-249.57,16.94-371,1.26-123-15.88-230.22-41.65-355.43-56.13C267,24.76,129.14,22.83.76,32.4Q.63,36.08.42,39.75A193.39,193.39,0,0,1,0,68.63C1.17,79.41,2.38,90.18,1,101a5.62,5.62,0,0,1-.21,1C95.7,79,235.16,75.26,350,78c137.09,3.24,255.91,21.52,373.5,42.45,113.93,20.26,233.63,40.9,368.44,40.59,70.35-.16,133-8.35,190-20C1281.57,111.69,1280.23,82.35,1280,53Z"/><circle class="cls-2" cx="1172" cy="67" r="5"/><circle class="cls-3" cx="1132.5" cy="74.5" r="14.5"/><ellipse class="cls-2" cx="158" cy="50.5" rx="52" ry="47.5"/><circle class="cls-2" cx="688" cy="72" r="5"/><line class="cls-4" x1="688" y1="76" x2="688" y2="86"/><circle class="cls-2" cx="768" cy="78" r="5"/><line class="cls-5" x1="768" y1="82.5" x2="768" y2="97.5"/><circle class="cls-2" cx="928" cy="85" r="5"/><line class="cls-6" x1="928" y1="88.5" x2="928" y2="108.5"/><circle class="cls-2" cx="1008" cy="88" r="5"/><line class="cls-7" x1="1008" y1="92.5" x2="1008" y2="107.5"/><circle class="cls-2" cx="1066" cy="83" r="5"/><line class="cls-7" x1="1066" y1="87.5" x2="1066" y2="102.5"/><line class="cls-4" x1="1171.5" y1="72.5" x2="1171.5" y2="82.5"/><circle class="cls-2" cx="848" cy="79" r="5"/><line class="cls-8" x1="848" y1="82.5" x2="848" y2="106.5"/><line class="cls-9" x1="296.5" y1="76.5" x2="296.5" y2="91.5"/><circle class="cls-10" cx="296.5" cy="102.5" r="12.5"/><line class="cls-11" x1="74.5" y1="89" x2="74.5" y2="110"/><circle class="cls-12" cx="74.5" cy="122.5" r="14.5"/><text></text><path class="cls-13" d="M820.61,59.52"/><path class="cls-13" d="M821.61,7.52"/><text></text></svg>