<?xml version="1.0" encoding="utf-8"?>
<!-- Generator: Adobe Illustrator 22.0.0, SVG Export Plug-In . SVG Version: 6.00 Build 0)  -->
<svg version="1.1" id="Bg_x5F_Main" xmlns="http://www.w3.org/2000/svg" xmlns:xlink="http://www.w3.org/1999/xlink" x="0px"
	 y="0px" viewBox="0 0 1280 1156" style="enable-background:new 0 0 1280 1156;" xml:space="preserve">
<style type="text/css">
	.st0{fill:url(#SVGID_1_);}
	.st1{fill:url(#SVGID_2_);}
	.st2{opacity:0.51;fill:url(#SVGID_3_);}
	.st3{opacity:0.7;fill:url(#SVGID_4_);}
	.st4{opacity:0.49;}
	.st5{fill:#FFFFFF;}
	.st6{fill:none;stroke:#008F53;stroke-width:2;stroke-miterlimit:1;}
	.st7{opacity:0.58;}
	.st8{fill:#003B22;}
	.st9{fill:#253335;}
	.st10{fill:#0D1819;}
	.st11{fill:#AA1923;}
	.st12{fill:url(#SVGID_5_);}
	.st13{fill:#1E5B49;}
	.st14{fill:url(#SVGID_6_);}
	.st15{font-family:'Roboto-BoldItalic';}
	.st16{font-size:20px;}
	.st17{opacity:0.2;fill:#FFFFFF;enable-background:new    ;}
	.st18{fill:#F4F5F6;}
	.st19{opacity:0.15;fill:#8F979F;enable-background:new    ;}
	.st20{fill:#24292E;}
	.st21{fill:#3B446B;}
	.st22{fill:#CDFFD5;}
	.st23{fill:#79B8FF;}
	.st24{opacity:0.15;fill:#24292E;enable-background:new    ;}
	.st25{fill:#6D472E;}
	.st26{fill:#301C0E;}
	.st27{fill:none;stroke:#FFFFFF;stroke-miterlimit:10;}
	.st28{fill:url(#SVGID_7_);}
	.st29{fill:url(#SVGID_8_);}
	.st30{fill:#2F363C;}
	.st31{fill:#EDEEEF;}
	.st32{opacity:0.9;fill:#754C24;enable-background:new    ;}
	.st33{fill:#754C24;}
	.st34{fill:#B5B5B5;}
	.st35{fill:url(#SVGID_9_);}
</style>
<symbol  id="Illuminated_Green_Round_Org_9_" viewBox="-13.1 -13.1 26.2 26.2">
	<g>
		
			<linearGradient id="SVGID_1_" gradientUnits="userSpaceOnUse" x1="7.640000e-02" y1="-12.1064" x2="7.640000e-02" y2="12.1064" gradientTransform="matrix(1 0 0 1 -7.690000e-02 0)">
			<stop  offset="0" style="stop-color:#008046"/>
			<stop  offset="0.618" style="stop-color:#00582F"/>
			<stop  offset="0.6292" style="stop-color:#006E42"/>
			<stop  offset="0.9831" style="stop-color:#006600"/>
		</linearGradient>
		<path class="st0" d="M12.1,0c0-6.7-5.4-12.1-12.1-12.1c-6.7,0-12.1,5.4-12.1,12.1c0,6.7,5.4,12.1,12.1,12.1
			C6.7,12.1,12.1,6.7,12.1,0z"/>
		
			<linearGradient id="SVGID_2_" gradientUnits="userSpaceOnUse" x1="7.640000e-02" y1="-12.1064" x2="7.640000e-02" y2="12.1064" gradientTransform="matrix(1 0 0 1 -7.690000e-02 0)">
			<stop  offset="0" style="stop-color:#004B2C;stop-opacity:0.22"/>
			<stop  offset="0.5" style="stop-color:#002816"/>
			<stop  offset="0.5549" style="stop-color:#245021;stop-opacity:0.9044"/>
			<stop  offset="0.614" style="stop-color:#43742A;stop-opacity:0.8016"/>
			<stop  offset="0.6766" style="stop-color:#5D9132;stop-opacity:0.6928"/>
			<stop  offset="0.7426" style="stop-color:#72A838;stop-opacity:0.5778"/>
			<stop  offset="0.8137" style="stop-color:#80B83C;stop-opacity:0.4541"/>
			<stop  offset="0.8935" style="stop-color:#88C23E;stop-opacity:0.3153"/>
			<stop  offset="1" style="stop-color:#8BC53F;stop-opacity:0.13"/>
		</linearGradient>
		<path class="st1" d="M12.1,0c0-6.7-5.4-12.1-12.1-12.1c-6.7,0-12.1,5.4-12.1,12.1c0,6.7,5.4,12.1,12.1,12.1
			C6.7,12.1,12.1,6.7,12.1,0z"/>
		
			<radialGradient id="SVGID_3_" cx="7.640000e-02" cy="0" r="12.1067" gradientTransform="matrix(1 0 0 0.5 -7.690000e-02 0)" gradientUnits="userSpaceOnUse">
			<stop  offset="0" style="stop-color:#8BC53F;stop-opacity:0"/>
			<stop  offset="0.1862" style="stop-color:#7FBE3F;stop-opacity:0.1304"/>
			<stop  offset="0.527" style="stop-color:#5DAD3D;stop-opacity:0.3689"/>
			<stop  offset="0.9813" style="stop-color:#28903B;stop-opacity:0.6869"/>
			<stop  offset="1" style="stop-color:#268F3B;stop-opacity:0.7"/>
		</radialGradient>
		<path class="st2" d="M12.1,0c0-6.7-5.4-12.1-12.1-12.1c-6.7,0-12.1,5.4-12.1,12.1c0,6.7,5.4,12.1,12.1,12.1
			C6.7,12.1,12.1,6.7,12.1,0z"/>
		
			<linearGradient id="SVGID_4_" gradientUnits="userSpaceOnUse" x1="7.640000e-02" y1="12.1064" x2="7.640000e-02" y2="-12.1064" gradientTransform="matrix(1 0 0 1 -7.690000e-02 0)">
			<stop  offset="0" style="stop-color:#FFFFFF;stop-opacity:0.77"/>
			<stop  offset="0.45" style="stop-color:#FFFFFF;stop-opacity:0"/>
			<stop  offset="0.4541" style="stop-color:#F6F7F6;stop-opacity:1.180839e-03"/>
			<stop  offset="0.4762" style="stop-color:#C8CDCB;stop-opacity:7.628202e-03"/>
			<stop  offset="0.5012" style="stop-color:#9DA6A2;stop-opacity:1.489437e-02"/>
			<stop  offset="0.528" style="stop-color:#77837E;stop-opacity:2.270381e-02"/>
			<stop  offset="0.5573" style="stop-color:#57665F;stop-opacity:3.120417e-02"/>
			<stop  offset="0.5896" style="stop-color:#3B4D45;stop-opacity:4.059827e-02"/>
			<stop  offset="0.626" style="stop-color:#253930;stop-opacity:5.120119e-02"/>
			<stop  offset="0.6686" style="stop-color:#142A20;stop-opacity:6.358758e-02"/>
			<stop  offset="0.7212" style="stop-color:#091F15;stop-opacity:7.889684e-02"/>
			<stop  offset="0.795" style="stop-color:#02190F;stop-opacity:0.1004"/>
			<stop  offset="1" style="stop-color:#00170D;stop-opacity:0.16"/>
		</linearGradient>
		<path class="st3" d="M12.1,0c0-6.7-5.4-12.1-12.1-12.1c-6.7,0-12.1,5.4-12.1,12.1c0,6.7,5.4,12.1,12.1,12.1
			C6.7,12.1,12.1,6.7,12.1,0z"/>
		<g class="st4">
			<path class="st5" d="M0-9.7C-5.3-9.4-11.6-5-10.7,1.1C-9.9,6-4.8,9.7,0,9.7c4.8,0,9.9-3.6,10.7-8.6C11.6-5,5.3-9.4,0-9.7
				c-0.1,0,0-2.5,0-2.5c14.4,0.8,14.7,24.2,0,24.3c-14.7,0.1-14.4-23.5,0-24.3C0-12.1,0.1-9.7,0-9.7z"/>
		</g>
		<path class="st6" d="M12.1,0c0-6.7-5.4-12.1-12.1-12.1c-6.7,0-12.1,5.4-12.1,12.1c0,6.7,5.4,12.1,12.1,12.1
			C6.7,12.1,12.1,6.7,12.1,0z"/>
		<g class="st7">
			<path class="st8" d="M12.1,0.2C11.3-15.1-11.8-15.6-11.8,0c0,15.6,23.1,15.2,23.9-0.2C12.1-0.1,12.1,0.1,12.1,0.2
				C11.7,8,4.7,14-3.2,11.9c-5.3-1.4-8.9-6.4-8.9-11.9c0-5.2,3.3-10,8.3-11.7c8-2.7,15.5,3.5,15.9,11.5C12.1-0.1,12.1,0.1,12.1,0.2z
				"/>
		</g>
	</g>
</symbol>
<rect id="Main_x5F_Bg" class="st9" width="1280" height="1092"/>
<rect id="Bg..2" x="1" y="57" class="st10" width="1279" height="960"/>
<g id="Dropdown_x5F_over">
</g>
<polygon class="st11" points="933,129 933,215.2 915.8,223.8 933,231.7 933,318 1281,318 1281,129 "/>
<path class="st5" d="M1024.5,656l99-54.2L912.5,486.3l-173,94.7L419,405.4l61-33.4l259.5,142l173-94.7L1185,568.2l99-54.2v142
	H1024.5z"/>
<radialGradient id="SVGID_5_" cx="656.9496" cy="175.2202" r="7.3511" gradientTransform="matrix(3.4545 0 0 3.6301 -1649.4546 -468.087)" gradientUnits="userSpaceOnUse">
	<stop  offset="0" style="stop-color:#FFFFFF"/>
	<stop  offset="8.510864e-02" style="stop-color:#FFECD8"/>
	<stop  offset="0.2082" style="stop-color:#FFD5A7"/>
	<stop  offset="0.3345" style="stop-color:#FFC07D"/>
	<stop  offset="0.462" style="stop-color:#FFAF5B"/>
	<stop  offset="0.591" style="stop-color:#FFA340"/>
	<stop  offset="0.7222" style="stop-color:#FF992D"/>
	<stop  offset="0.8568" style="stop-color:#FF9422"/>
	<stop  offset="1" style="stop-color:#FF921E"/>
</radialGradient>
<path class="st12" d="M600,184.3l3.3,3.5l4.2-4.5l-3.3-3.5L600,184.3z M617.6,194h4.7v-7.3h-4.7V194z M601.1,164.3H594v5h7.1V164.3z
	 M627.1,153.9v-12h-14.2v12c-4.2,2.6-7.1,7.4-7.1,12.9c0,8.2,6.4,14.9,14.2,14.9c7.8,0,14.2-6.7,14.2-14.9
	C634.2,161.3,631.3,156.5,627.1,153.9z M638.9,164.3v5h7.1v-5H638.9z M632.4,183.3l4.2,4.5l3.3-3.5l-4.3-4.4
	C635.7,179.9,632.4,183.3,632.4,183.3z"/>
<rect y="993" class="st13" width="1280" height="166"/>
<g id="Org_x5F_Dg">
	<g id="Illuminated_Green_Round_Org_2_">
	</g>
	<g id="Illuminated_Green_Round_Org_1_">
	</g>
	<g id="Illuminated_Green_Round_Org_3_">
	</g>
	<g id="Illuminated_Green_Round_Org">
	</g>
	<g id="Illuminated_Green_Round_Org_6_">
	</g>
	<g id="Illuminated_Green_Round_Org_5_">
	</g>
	<g id="Illuminated_Green_Round_Org_4_">
	</g>
	<g id="Illuminated_Green_Round_Org_8_">
	</g>
	<g id="Illuminated_Green_Round_Org_7_">
	</g>
	<circle class="st5" cx="1214" cy="870" r="42"/>
	<circle class="st5" cx="1048" cy="862" r="34"/>
</g>
<radialGradient id="SVGID_6_" cx="-496.5" cy="-667.5" r="55.5" gradientUnits="userSpaceOnUse">
	<stop  offset="0" style="stop-color:#FFFFFF"/>
	<stop  offset="8.510864e-02" style="stop-color:#FFECD8"/>
	<stop  offset="0.2082" style="stop-color:#FFD5A7"/>
	<stop  offset="0.3345" style="stop-color:#FFC07D"/>
	<stop  offset="0.462" style="stop-color:#FFAF5B"/>
	<stop  offset="0.591" style="stop-color:#FFA340"/>
	<stop  offset="0.7222" style="stop-color:#FF992D"/>
	<stop  offset="0.8568" style="stop-color:#FF9422"/>
	<stop  offset="1" style="stop-color:#FF921E"/>
</radialGradient>
<circle class="st14" cx="-496.5" cy="-667.5" r="55.5"/>
<g>
	<polygon class="st11" points="1137.2,716.1 1135.8,685 1155.1,702.9 	"/>
	
		<rect x="1010" y="698.9" transform="matrix(0.9808 0.195 -0.195 0.9808 171.2109 -206.4001)" class="st11" width="248" height="135.1"/>
</g>
<text transform="matrix(1 0 0 1 740 120)" class="st11 st15 st16">Are you an Employer who want to post a job?</text>
<g>
	<circle class="st13" cx="762.2" cy="997.3" r="20"/>
	<circle class="st13" cx="807" cy="969.8" r="12.5"/>
	<circle class="st5" cx="760.1" cy="936.3" r="30"/>
</g>
<path class="st17" d="M909.5,353.1l6.9,1.5c0.5,0.1,0.8,0.5,0.8,1"/>
<g>
	<g>
		<g>
			<path class="st18" d="M836.5,342.4l-144.1-39.7c-1.4-0.4-2.2-1.8-1.8-3.1c0.2-0.7,0.6-1.2,1.2-1.6c0,0,65.5-37,68.2-38.5
				c1.8-0.9,3.9-1.1,5.8-0.7l139.8,34.9c2.6,0.6,4.3,3.3,3.7,5.9c-0.3,1.2-1,2.2-1.9,2.9L855.7,339
				C850.2,342.9,843.1,344.2,836.5,342.4z"/>
			<path class="st19" d="M773.5,266l110.2,27.8c0.9,0.2,1.5,1,1.3,1.9c-0.1,0.4-0.4,0.8-0.7,1.1l-35.4,24.1
				c-0.8,0.5-1.8,0.7-2.7,0.5L734,291.9c-0.9-0.2-1.4-1.1-1.2-2c0.1-0.4,0.4-0.8,0.8-1l38.5-22.6C772.5,266,773,265.9,773.5,266z
				 M748.4,310.7l13.2-7.9c1.1-0.7,2.5-0.9,3.8-0.5l37.6,9.9c0.9,0.2,1.4,1.1,1.2,2c-0.1,0.4-0.3,0.7-0.7,1l-13,8.8
				c-0.8,0.5-1.8,0.7-2.7,0.5l-39-10.6c-0.9-0.2-1.4-1.1-1.2-2C747.8,311.3,748.1,310.9,748.4,310.7L748.4,310.7z"/>
			<path class="st20" d="M760.6,250.6l-3.3-90.8c-0.2-5.3,4.3-9.4,9.2-8.4L909.8,180c3.7,0.9,6.3,4.2,6.2,8v100L760.6,250.6z"/>
			<path class="st21" d="M768.1,166.2l2.5,82.8c0,0.9,0.6,1.6,1.5,1.9l130.7,32.4c1.1,0.2,2.1-0.4,2.4-1.5c0-0.1,0-0.3,0-0.4
				l-0.5-88c0-0.9-0.7-1.7-1.6-1.9l-132.8-27.2c-1.1-0.2-2.1,0.5-2.3,1.6C768.1,165.9,768.1,166.1,768.1,166.2L768.1,166.2z"/>
			<path class="st5" d="M869.6,252.4l-67.2-16.2c-1.1-0.3-1.8-1.3-1.8-2.4l-1.1-45.5c0-1.1,71.8,13.6,71.8,14.8l0.3,47.8
				c0,0.8-0.6,1.5-1.4,1.6C869.9,252.5,869.8,252.5,869.6,252.4L869.6,252.4z"/>
			<path class="st5" d="M821.8,228.7l-17.6-4.1c-0.4-0.1-0.8-0.5-0.8-1l-0.6-26c0-0.6,0.4-1,1-1c0.1,0,0.2,0,0.2,0l17.7,3.8
				c0.5,0.1,0.8,0.5,0.8,1l0.5,26.3c0,0.6-0.4,1-1,1C822,228.7,821.9,228.7,821.8,228.7L821.8,228.7z"/>
			<path class="st22" d="M867.8,217.3l-30.6-6.7l-0.1-6.9l30.7,6.6L867.8,217.3L867.8,217.3z"/>
			<path class="st22" d="M867.9,227.3l-31-7.1l0-7l31,6.6L867.9,227.3z"/>
			<path class="st20" d="M871.3,203.4l-71.7-15l-0.1-5.3c-0.1-0.8,0.5-1.5,1.3-1.6c0.2,0,0.3,0,0.5,0l68,13.9c1.1,0.3,2,1.3,2,2.5
				L871.3,203.4z"/>
			<path class="st17" d="M896.4,209l-6.9-1.5c-0.5-0.1-0.8-0.5-0.8-1v-0.3c0-0.3,0.2-0.6,0.6-0.7c0.1,0,0.1,0,0.2,0l6.9,1.5
				c0.5,0.1,0.8,0.5,0.8,1v0.3c0,0.3-0.2,0.6-0.6,0.7C896.6,209.1,896.5,209.1,896.4,209z"/>
			<path class="st17" d="M896.4,223.5l-6.9-1.5c-0.5-0.1-0.8-0.5-0.8-1v-0.3c0-0.3,0.2-0.6,0.6-0.7c0.1,0,0.1,0,0.2,0l6.9,1.5
				c0.5,0.1,0.8,0.5,0.8,1v0.3c0,0.3-0.2,0.6-0.5,0.7C896.6,223.6,896.5,223.6,896.4,223.5L896.4,223.5z"/>
		</g>
		<path class="st23" d="M895.3,199.8l-2.5-0.5c-0.3-0.1-0.5-0.3-0.5-0.5s-0.3-0.5-0.5-0.5l-1-0.2c-0.3-0.1-0.5,0.1-0.6,0.4
			c0,0,0,0.1,0,0.1v3.9c0,0.4,0.2,0.7,0.6,0.8l4.6,1c0.3,0.1,0.5-0.1,0.6-0.4c0,0,0-0.1,0-0.1v-3.1
			C895.9,200.2,895.7,199.9,895.3,199.8L895.3,199.8z"/>
		<path class="st23" d="M895.3,215.3l-2.5-0.5c-0.3-0.1-0.5-0.3-0.5-0.5s-0.3-0.5-0.5-0.5l-1-0.2c-0.3-0.1-0.5,0.1-0.6,0.3
			c0,0.1,0,0.1,0,0.2v3.9c0,0.4,0.2,0.7,0.6,0.8l4.6,1c0.3,0.1,0.5-0.1,0.6-0.3c0-0.1,0-0.1,0-0.2V216
			C895.9,215.6,895.6,215.3,895.3,215.3L895.3,215.3z"/>
	</g>
	<g>
		<path class="st24" d="M764,307.2c3.9-0.4,5.8-2.3,4.7-4c-2-2.8-11.6-4.1-15.7-4.5c-8.2-0.9-7-8-0.4-10.1
			c6.6-2.1,13.5,2.4,20.6,1.7c3.3-0.4,3.3-1.1,6.5-1.8s3.4-3.4,0.8-4.2c-3.1-0.9-14.7-4-14.7-4l-21.2-2.5c0,0-17.9,16.7-26.8,24.2
			c-2.4,2-4.9,4.4-7.4,6.9l16.9,4.7c4.3-3.3,9-6.6,11.3-7C743.1,305.7,758.5,307.7,764,307.2L764,307.2z M844.5,295.5
			c-6.2-6.4-19.3-5.2-22-4.1c-1.7,0.7-1,2.8,1.8,4.9c3.8,2.7,6.7,1.8,7.2,3.2s4.6,18.1,4.9,23.6s-11.1-9.5-11.1-9.5s-4.5-6.2-4,0.8
			c0.3,4.4,3.9,20.9,8.4,24.5c1.7,1.3,3.6,2.3,5.6,3.2c4.5-0.1,8.8-1.6,12.5-4.2l11.9-8.4l-0.1-0.5
			C859.4,329.1,855.3,306.6,844.5,295.5L844.5,295.5z"/>
		<path class="st25" d="M896.6,390.3c0,0-21.1-36-25.6-47.8c-4.1-10.9,1-16.5-4.1-33.1c-2.4-7.7-8-10-8-10s-2.4-3.7-4.8-5.1
			c-1.6-0.9-3.3-1.4-5.1-1.7c-1.2-1.9-2.8-3.4-4.6-4.7c-2.2-1.3-5.8-1.2-5.8-1.2l-3.5-8.8c-3.1,1.9-4.6,5.6-3.8,9.1l-10.5,0.6
			c0.7,4.1,7.2,6.9,12.7,7.2c0,0,3.9,14.1,4.2,15.7c0.5,3.1,0.7,6.2,0.7,9.3c-0.2,1.5-2.2,1.9-3.2,0.9c-1.3-1.3-2.9-6.4-6.1-9.3
			c-2.1-2-5.1-3-8-2.7c6.2,13.7,6.3,13.6,9.3,20.7c1.4,3.4,3.8,6.4,11.4,10.7c9.2,5.3,12.8,10.2,16.2,20c3.6,10.3,3.3,12.4,5.6,18.5
			C871.1,399,896.6,390.3,896.6,390.3L896.6,390.3z"/>
		<path class="st26" d="M846.2,307.8c-0.2,0-0.3-0.1-0.3-0.3l-6.2-16.9c-0.1-0.2,0-0.4,0.2-0.5c0.2-0.1,0.4,0,0.5,0.2c0,0,0,0,0,0.1
			l6.2,16.9c0.1,0.2,0,0.4-0.2,0.5L846.2,307.8z M853.5,304.4c-0.2,0-0.3-0.1-0.4-0.2l-3.4-8.5c-0.1-0.2,0-0.4,0.2-0.5
			s0.4,0,0.5,0.2l3.4,8.5c0.1,0.2,0,0.4-0.2,0.5c0,0,0,0,0,0L853.5,304.4z M861.6,306.4c-0.2,0-0.3-0.1-0.3-0.2l-1.5-3.7
			c-0.1-0.2,0-0.4,0.2-0.5c0.2-0.1,0.4,0,0.5,0.2l0,0l1.5,3.7c0.1,0.2,0,0.4-0.2,0.5c0,0,0,0,0,0
			C861.7,306.4,861.6,306.4,861.6,306.4L861.6,306.4z"/>
		<path class="st25" d="M688.9,315.5c5.8-2.4,15-9.2,23-12.1c7.8-2.8,11.4-1.8,20.2-1c5,0.4,10.9-0.9,26.2-1
			c5.3-0.1,11.3-0.1,11.3-0.1s0.3-7.2-11.2-8.1c-6-0.5-7.6-0.5-10.7-1.5c-2.7-0.9-4.5-2.5-3.1-4.5c1.1-1.5,8.6-5.8,8.6-5.8
			s7.1,4,11.7,5.9s6.7-0.3,6.7-0.3c3.1,0.9,6.4,0.1,8.8-2.1l-6.8-3c1.1,0.4,2.2,0.8,3.3,1c7.6,1.9,9.6-2.2,9.6-2.2l-10.2-4.6
			c0,0,3.7,0.6,5.1,0.8c6.5,0.7,9-3.7,9-3.7s-23.5-7.1-27.1-7.1c-3.6-0.1-10.2,1.3-11.1,1.2c-2.2-0.2-5.2-1.7-8.4-1
			c-3.2,0.7-13.9,7.4-17.7,9.5c-14,7.6-71.9,29.1-71.9,29.1S668.1,324,688.9,315.5z"/>
	</g>
</g>
<g>
	<circle class="st5" cx="779.8" cy="176.9" r="1.8"/>
	<circle class="st5" cx="784.1" cy="178.9" r="1.1"/>
	<circle class="st5" cx="784.3" cy="173.7" r="2.7"/>
</g>
<g>
	<circle class="st5" cx="703" cy="166.8" r="3"/>
	<circle class="st5" cx="710.1" cy="170.1" r="1.9"/>
	<circle class="st5" cx="710.5" cy="161.5" r="4.5"/>
</g>
<g>
	<path class="st11" d="M1183,281c0,2.8-2.3,5-5,5H993c-2.8,0-5-2.3-5-5v-24c0-2.8,2.3-5,5-5h185c2.8,0,5,2.3,5,5V281z"/>
</g>
<g>
	<line class="st27" x1="912" y1="470" x2="912" y2="559"/>
	
		<radialGradient id="SVGID_7_" cx="741.4737" cy="284.0275" r="1.4133" gradientTransform="matrix(3.4545 0 0 3.6301 -1649.4546 -468.087)" gradientUnits="userSpaceOnUse">
		<stop  offset="0" style="stop-color:#FFFFFF"/>
		<stop  offset="8.510864e-02" style="stop-color:#FFECD8"/>
		<stop  offset="0.2082" style="stop-color:#FFD5A7"/>
		<stop  offset="0.3345" style="stop-color:#FFC07D"/>
		<stop  offset="0.462" style="stop-color:#FFAF5B"/>
		<stop  offset="0.591" style="stop-color:#FFA340"/>
		<stop  offset="0.7222" style="stop-color:#FF992D"/>
		<stop  offset="0.8568" style="stop-color:#FF9422"/>
		<stop  offset="1" style="stop-color:#FF921E"/>
	</radialGradient>
	<path class="st28" d="M908.2,566.1l0.6,0.7l0.8-0.9l-0.6-0.7L908.2,566.1z M911.5,568h0.9v-1.4h-0.9V568z M908.4,562.2H907v1h1.4
		V562.2z M913.4,560.2V558h-2.7v2.3c-0.8,0.5-1.4,1.4-1.4,2.5c0,1.6,1.2,2.9,2.7,2.9s2.7-1.3,2.7-2.9
		C914.7,561.7,914.2,560.7,913.4,560.2z M915.6,562.2v1h1.4v-1H915.6z M914.4,565.9l0.8,0.9l0.6-0.7l-0.8-0.9L914.4,565.9z"/>
</g>
<g>
	<line class="st27" x1="740" y1="561" x2="740" y2="650"/>
	
		<radialGradient id="SVGID_8_" cx="691.6842" cy="308.8204" r="1.4133" gradientTransform="matrix(3.4545 0 0 3.6301 -1649.4546 -468.087)" gradientUnits="userSpaceOnUse">
		<stop  offset="0" style="stop-color:#FFFFFF"/>
		<stop  offset="8.510864e-02" style="stop-color:#FFECD8"/>
		<stop  offset="0.2082" style="stop-color:#FFD5A7"/>
		<stop  offset="0.3345" style="stop-color:#FFC07D"/>
		<stop  offset="0.462" style="stop-color:#FFAF5B"/>
		<stop  offset="0.591" style="stop-color:#FFA340"/>
		<stop  offset="0.7222" style="stop-color:#FF992D"/>
		<stop  offset="0.8568" style="stop-color:#FF9422"/>
		<stop  offset="1" style="stop-color:#FF921E"/>
	</radialGradient>
	<path class="st29" d="M736.2,656.1l0.6,0.7l0.8-0.9l-0.6-0.7L736.2,656.1z M739.5,658h0.9v-1.4h-0.9V658z M736.4,652.2H735v1h1.4
		V652.2z M741.4,650.2V648h-2.7v2.3c-0.8,0.5-1.4,1.4-1.4,2.5c0,1.6,1.2,2.9,2.7,2.9s2.7-1.3,2.7-2.9
		C742.7,651.7,742.2,650.7,741.4,650.2z M743.6,652.2v1h1.4v-1H743.6z M742.4,655.9l0.8,0.9l0.6-0.7l-0.8-0.9L742.4,655.9z"/>
</g>
<g>
	<path class="st30" d="M828.1,754.1L959.2,718c1.2-0.3,2-1.6,1.6-2.9c-0.2-0.6-0.6-1.1-1.1-1.4c0,0-59.6-33.7-62.1-35
		c-1.6-0.8-3.5-1-5.3-0.6l-127.1,31.8c-2.4,0.6-3.9,3-3.3,5.4c0.3,1.1,0.9,2,1.8,2.6l47,33.2C815.7,754.6,822.1,755.8,828.1,754.1z"
		/>
	<path class="st19" d="M885.4,684.6L785.2,710c-0.8,0.2-1.3,1-1.2,1.8c0.1,0.4,0.3,0.8,0.7,1l32.2,21.9c0.7,0.5,1.6,0.6,2.4,0.4
		l102.1-26.8c0.8-0.2,1.3-1,1.1-1.8c-0.1-0.4-0.3-0.7-0.7-0.9l-35-20.6C886.4,684.6,885.9,684.6,885.4,684.6L885.4,684.6z
		 M909.7,725.6l-12-7.2c-1-0.6-2.3-0.8-3.4-0.5l-34.2,9c-0.8,0.2-1.3,1-1.1,1.8c0.1,0.4,0.3,0.7,0.6,0.9l11.8,8
		c0.7,0.5,1.6,0.6,2.5,0.4l35.5-9.7c0.8-0.2,1.3-1,1.1-1.8C910.3,726.1,910.1,725.8,909.7,725.6L909.7,725.6z"/>
	<path class="st20" d="M897.2,670.6l3-82.6c0.2-4.8-3.9-8.6-8.4-7.6l-130.4,26c-3.4,0.8-5.7,3.8-5.6,7.3v91L897.2,670.6z"/>
	<path class="st13" d="M890.5,593.9l-2.3,75.3c0,0.8-0.6,1.5-1.4,1.7l-118.9,29.5c-1,0.2-2-0.4-2.2-1.4c0-0.1,0-0.2,0-0.4l0.5-80.1
		c0-0.8,0.6-1.6,1.4-1.7l120.8-24.7c1-0.2,1.9,0.5,2.1,1.5C890.5,593.6,890.5,593.8,890.5,593.9L890.5,593.9z"/>
	<path class="st31" d="M792.5,638l-16.7,3.6c-0.3,0.1-0.5-0.1-0.6-0.4c0-0.1,0-0.1,0-0.2c0-0.4,0.3-0.7,0.6-0.8l16.7-3.6
		c0.3-0.1,0.5,0.1,0.6,0.4c0,0.1,0,0.1,0,0.2C793.2,637.6,792.9,637.9,792.5,638L792.5,638z M801.4,636.1l-4.2,0.9
		c-0.3,0.1-0.5-0.1-0.6-0.4c0-0.1,0-0.1,0-0.2c0-0.4,0.3-0.7,0.6-0.8l4.2-0.9c0.3-0.1,0.5,0.1,0.6,0.4c0,0.1,0,0.1,0,0.2
		C802,635.7,801.7,636,801.4,636.1z M807.7,634.8l-1.6,0.3c-0.3,0.1-0.5-0.1-0.6-0.4c0-0.1,0-0.1,0-0.2c0-0.4,0.3-0.7,0.6-0.8
		l1.6-0.3c0.3-0.1,0.5,0.1,0.6,0.4c0,0.1,0,0.1,0,0.2C808.3,634.3,808.1,634.7,807.7,634.8z M818.9,632.4l-6.8,1.5
		c-0.3,0.1-0.5-0.1-0.6-0.4c0-0.1,0-0.1,0-0.2c0-0.4,0.3-0.7,0.6-0.8l6.8-1.5c0.3-0.1,0.5,0.1,0.6,0.4c0,0.1,0,0.1,0,0.2
		C819.6,631.9,819.3,632.3,818.9,632.4z M789,643.1l-7.3,1.6c-0.3,0.1-0.5-0.1-0.6-0.4c0-0.1,0-0.1,0-0.2c0-0.4,0.3-0.7,0.6-0.8
		l7.3-1.6c0.3-0.1,0.5,0.1,0.6,0.4c0,0.1,0,0.1,0,0.2C789.6,642.6,789.4,642.9,789,643.1z M807.2,639.2l-14.5,3.1
		c-0.3,0.1-0.5-0.1-0.6-0.4c0-0.1,0-0.1,0-0.2c0-0.4,0.3-0.7,0.6-0.8l14.5-3.1c0.3-0.1,0.5,0.1,0.6,0.4c0,0.1,0,0.1,0,0.2
		C807.8,638.7,807.6,639,807.2,639.2z M794.8,646.1l-7.3,1.6c-0.3,0.1-0.5-0.1-0.6-0.4c0-0.1,0-0.1,0-0.2c0-0.4,0.3-0.7,0.6-0.8
		l7.3-1.6c0.3-0.1,0.5,0.1,0.6,0.4c0,0.1,0,0.1,0,0.2C795.4,645.6,795.2,645.9,794.8,646.1z M792.7,650.8l-9.6,2.1
		c-0.3,0.1-0.5-0.1-0.6-0.4c0-0.1,0-0.1,0-0.2c0-0.4,0.3-0.7,0.6-0.9l9.6-2.1c0.3-0.1,0.5,0.1,0.6,0.4c0,0.1,0,0.1,0,0.2
		C793.3,650.3,793,650.6,792.7,650.8L792.7,650.8z M795,658.7l-6.8,1.4c-0.3,0.1-0.5-0.1-0.6-0.4c0-0.1,0-0.1,0-0.2
		c0-0.4,0.3-0.7,0.6-0.8l6.8-1.4c0.3-0.1,0.5,0.1,0.6,0.4c0,0.1,0,0.1,0,0.2C795.6,658.3,795.3,658.6,795,658.7z M791.2,663.8
		l-3.8,0.8c-0.3,0.1-0.5-0.1-0.6-0.4c0-0.1,0-0.1,0-0.2c0-0.4,0.3-0.7,0.6-0.8l3.8-0.8c0.3-0.1,0.5,0.1,0.6,0.4c0,0.1,0,0.1,0,0.2
		C791.8,663.3,791.5,663.7,791.2,663.8z M799.1,662.1l-4.7,1c-0.3,0.1-0.5-0.1-0.6-0.4c0-0.1,0-0.1,0-0.2c0-0.4,0.3-0.7,0.6-0.8
		l4.7-1c0.3-0.1,0.5,0.1,0.6,0.4c0,0.1,0,0.1,0,0.2C799.7,661.6,799.5,662,799.1,662.1z M811.2,659.5l-8.7,1.8
		c-0.3,0.1-0.5-0.1-0.6-0.4c0-0.1,0-0.1,0-0.2c0-0.4,0.3-0.7,0.6-0.8l8.7-1.8c0.3-0.1,0.5,0.1,0.6,0.4c0,0.1,0,0.1,0,0.2
		C811.8,659.1,811.6,659.4,811.2,659.5z M807.6,647.6l-11.1,2.4c-0.3,0.1-0.5-0.1-0.6-0.4c0-0.1,0-0.1,0-0.2c0-0.4,0.3-0.7,0.6-0.8
		l11.1-2.4c0.3-0.1,0.5,0.1,0.6,0.4c0,0.1,0,0.1,0,0.2C808.2,647.1,808,647.5,807.6,647.6L807.6,647.6z M786.3,656.4l-6,1.3
		c-0.4,0.1-0.6-0.2-0.6-0.6c0-0.4,0.3-0.7,0.7-0.8l6-1.2c0.3,0,0.5,0.1,0.6,0.4c0,0,0,0.1,0,0.1
		C786.9,655.9,786.6,656.2,786.3,656.4L786.3,656.4z M797.9,653.9l-8.2,1.7c-0.3,0.1-0.5-0.1-0.6-0.4c0-0.1,0-0.1,0-0.2
		c0-0.4,0.3-0.7,0.6-0.8l8.2-1.7c0.3-0.1,0.5,0.1,0.6,0.4c0,0.1,0,0.1,0,0.2C798.5,653.4,798.3,653.8,797.9,653.9z M803.9,644.1
		l-5.3,1.1c-0.3,0.1-0.5-0.1-0.6-0.4c0-0.1,0-0.1,0-0.2c0-0.4,0.3-0.7,0.6-0.8l5.3-1.1c0.3-0.1,0.5,0.1,0.6,0.4c0,0.1,0,0.1,0,0.2
		C804.5,643.7,804.3,644,803.9,644.1z M813.1,637.9l-2.1,0.5c-0.3,0.1-0.5-0.1-0.6-0.4c0-0.1,0-0.1,0-0.2c0-0.4,0.3-0.7,0.6-0.8
		l2.1-0.5c0.3-0.1,0.5,0.1,0.6,0.4c0,0.1,0,0.1,0,0.2C813.7,637.5,813.5,637.8,813.1,637.9z M815.3,641.7l-7.4,1.6
		c-0.3,0.1-0.5-0.1-0.6-0.4c0-0.1,0-0.1,0-0.2c0-0.4,0.3-0.7,0.6-0.8l7.4-1.6c0.3-0.1,0.5,0.1,0.6,0.4c0,0.1,0,0.1,0,0.2
		C815.9,641.3,815.6,641.6,815.3,641.7z"/>
	<path class="st32" d="M898.6,699.2c-1.5-1-5.6-3.2-9.7-5.3l-12.2-6.3c0,0-0.6,2.6,4.5,5.4c2.6,1.4,19.2,11.8,12,10.9
		c-8.1-1-20.4-8.3-20.4-8.3s-0.9,3.8,6.5,7.3c15.8,7.4,24.8,18.2,13.5,20c-4,0.6-6.8,2.1-8,3.9c-1,1.5,0.3,2.7,2.4,2.6
		c2.6-0.2,10.6-0.5,12.8-0.6c7.1-0.2,10.9-1.1,15.4-0.7c2.1,0.2,8.7,1.5,11.7,3.2l25.9-7.2C931.6,716.6,902.1,701.5,898.6,699.2z
		 M844.8,751.1c3.9-3.2,6.3-10.3,7.5-13.8s4.8-7.1,4-7.7c-1.1-0.8-5.2,0-7.6,1.6c-18.7,13.1-22.1,7.6-22.1,7.6l-1.9,20.4
		c1.2-0.1,2.4-0.3,3.5-0.6L841,755C842.1,753.6,843.3,752.3,844.8,751.1L844.8,751.1z"/>
	<path class="st33" d="M829.6,804c0,0-21.8-2.4-16.9-26.5c2.1-10.2,5.2-19.6,5.9-24.6c0.4-3-4.2-9.7-5.4-15.9
		c-1.1-5.8-2.5-20.3-2-21.6c0.4-1.8,4.3-9.1,4.3-9.1s1.5,1.4,1.3,4.5c-0.2,2.5-1,4.5-0.8,5.4c0.1,0.5,1.2,6.4,1.5,7.3
		c0.8,1.8,1.5,0.6,1.5-0.2c0.3-3.5-0.7-12,1-15.9c2.1-5.1,5-11.6,5-11.6s2.6,1.5,2.9,3.6l1.3-3.8c0,0,2.9,2.7,2.6,6.4
		c-0.3,3.7-0.9,6-0.7,7.6c0.2,1.6,0.9,9.3,1.3,10.6c0.2,0.6,0.9,0.6,1-0.1c0.2-1.9,1.6-11.3,1.6-11.3l3.2-10.6
		c1.9,1.4,2.9,3.7,2.7,6c-0.2,4.1-0.8,6.7-0.9,8.3c0.2,1.1,0.5,13.4,0.9,15.9s1.6,5,4.7,2.1c1.8-1.7,5.6-8.2,12.4-5.2
		c0,0-5.3,5.5-6,6.6c-0.7,1.1-4.2,10.7-6.7,12.6s-8.9,6.3-10.6,12C833.8,761.6,830.8,787.2,829.6,804L829.6,804z"/>
	<path class="st33" d="M960.7,716.7c0,0-31.8-8.3-35.1-9.1c-2.5-0.8-4.9-2-6.9-3.6c-2-1.6-7.6-9.4-7.9-9.9
		c-0.9-1.2-13.2-10.6-13.2-10.6c-0.7,1.5-0.7,3.2-0.1,4.8c0,0-9.4-5.2-10.3-5.8c-1-0.6-4-2.6-4-2.6s-1.2,4,1.7,6.3
		c1.7,1.4,3.4,2.6,5.2,3.7l-14.3-6.6c0,0-0.4,3.4,1.7,5.2c1.8,1.7,7.5,3.8,9.5,5.2c2,1.6,4,3.3,5.8,5.1c0.4,0.4,0.2,0.9-0.4,0.7
		c-2.6-0.9-7.8-3.2-9.2-3.8c-1.8-0.7-12.3-4.9-12.3-5s-0.7,4.4,2.8,6.6c3.2,1.9,8,3.8,9.4,4.5c6.6,3.4,16,9.7,16.9,13.5
		c0.8,3.4,0.7,5-9.3,6.1c-7.9,0.9-9.3,5.7-9.3,5.7s12.7-0.2,14.5-0.4c2.3-0.3,13.2-1.5,18.9-2.8c3.4-0.8,9.9-0.4,12.8,0.1
		s43.3,10,43.3,10S971.7,719.8,960.7,716.7L960.7,716.7z"/>
	<path class="st20" d="M884.9,598.2C884.9,598.2,884.9,598.2,884.9,598.2c-0.1,0-0.1-0.1-0.1-0.2l1.4-1.8c0,0,0.1,0,0.1,0
		c0,0,0,0,0,0c0,0,0,0.1,0,0.2L884.9,598.2C885,598.2,885,598.2,884.9,598.2L884.9,598.2z M818,619l-1.4-1.2c0,0,0-0.1,0-0.1
		c0,0,0,0,0,0l1.4,1.2C818.1,618.9,818.1,618.9,818,619L818,619z"/>
	<path class="st34" d="M787.6,625.5l-0.2,0.1c-0.5,0.1-1-0.2-1.1-0.7c0-0.1,0-0.1,0-0.2c0-0.7,0.5-1.2,1.1-1.4l0.2-0.1
		c0.5-0.1,1,0.2,1.1,0.7c0,0.1,0,0.1,0,0.2C788.7,624.8,788.2,625.3,787.6,625.5z M814.4,618.8l-23.6,5c-0.1,0-0.2,0-0.2-0.1
		c0,0,0,0,0-0.1c0-0.1,0.1-0.3,0.2-0.3l23.6-5.1c0.1,0,0.2,0,0.2,0.1c0,0,0,0,0,0.1C814.6,618.6,814.5,618.7,814.4,618.8
		L814.4,618.8z"/>
</g>
<path class="st5" d="M1219.2,741.6l-1.1,0l-0.4-0.4c1.3-1.6,2.1-3.7,2.1-5.9c-0.1-5-4.3-8.9-9.4-8.8c-5.1,0.1-9.1,4.3-8.9,9.3
	c0.1,5,4.3,8.9,9.4,8.8c2.3-0.1,4.3-0.9,5.9-2.3l0.4,0.4l0,1.1l7.2,6.8l2.1-2.1L1219.2,741.6z M1210.8,741.8
	c-3.5,0.1-6.4-2.6-6.5-6.1c-0.1-3.5,2.7-6.3,6.2-6.4c3.5-0.1,6.4,2.6,6.5,6.1C1217,738.9,1214.3,741.8,1210.8,741.8z"/>
<g>
	
		<radialGradient id="SVGID_9_" cx="525.9605" cy="290.2278" r="4.6637" gradientTransform="matrix(3.4545 0 0 3.6301 -1649.4546 -468.087)" gradientUnits="userSpaceOnUse">
		<stop  offset="0" style="stop-color:#FFFFFF"/>
		<stop  offset="8.510864e-02" style="stop-color:#FFECD8"/>
		<stop  offset="0.2082" style="stop-color:#FFD5A7"/>
		<stop  offset="0.3345" style="stop-color:#FFC07D"/>
		<stop  offset="0.462" style="stop-color:#FFAF5B"/>
		<stop  offset="0.591" style="stop-color:#FFA340"/>
		<stop  offset="0.7222" style="stop-color:#FF992D"/>
		<stop  offset="0.8568" style="stop-color:#FF9422"/>
		<stop  offset="1" style="stop-color:#FF921E"/>
	</radialGradient>
	<path class="st35" d="M154.8,595.8l2.1,2.2l2.7-2.8l-2.1-2.2L154.8,595.8z M166,602h3v-4.6h-3V602z M155.5,583.1H151v3.2h4.5V583.1
		z M172,576.5V569h-9v7.6c-2.7,1.6-4.5,4.7-4.5,8.2c0,5.2,4,9.5,9,9.5s9-4.2,9-9.5C176.5,581.2,174.7,578.2,172,576.5z M179.5,583.1
		v3.2h4.5v-3.2H179.5z M175.4,595.2l2.7,2.8l2.1-2.2l-2.7-2.8C177.5,593,175.4,595.2,175.4,595.2z"/>
	<line class="st27" x1="167.5" y1="213" x2="167.5" y2="570"/>
</g>
<g>
	<path class="st5" d="M1,25.2v537.6C85.2,502.5,140,404.5,140,294S85.2,85.5,1,25.2z"/>
</g>
<path class="st5" d="M1284,105.6c-34-7.9-72.7-13.7-117.4-17.1c-128.2-9.8-266.1-7.9-390.2,6.6c-124.5,14.5-231.1,40.2-353.4,56.1
	c-120.7,15.7-252.4,20.7-368.9-1.3c-18.6-3.5-36.6-7.3-54.1-11.3v74.7c25.4,2.3,51.9,3.6,79.6,3.7c134,0.3,253-20.3,366.3-40.6
	C562.9,155.5,681,137.2,817.3,134c122-2.9,272,1.6,366,29c40.2,11.7,73,25.3,100.7,39.9V105.6z"/>
<path class="st5" d="M1284,908.1c-48.7-18.4-107.9-31.6-185.4-37.5c-128.2-9.8-266.1-7.9-390.2,6.6
	c-124.5,14.5-231.1,40.2-353.4,56.1c-115.6,15-241.2,20.2-354,1.4v64.3c3.5,0,7.1,0.1,10.6,0.1c134,0.3,253-20.3,366.3-40.6
	C494.9,937.5,613,919.2,749.3,916c122-2.9,272,1.6,366,29c78.9,23,129.1,53.1,168.7,84.2V908.1z"/>
</svg>
